<svg width="1080" height="1080" viewBox="0 0 1080 1080" fill="none" xmlns="http://www.w3.org/2000/svg">
<path d="M414.621 525.246L411.023 520.389H404.978H404.699H377.977L395.73 540.361C396.895 541.672 397.633 542.674 398.62 544.015C399.268 544.896 400.024 545.923 401.079 547.28L404.888 544.389H404.978V544.321L420.194 532.77L414.621 525.246Z" stroke="white" stroke-width="24"/>
<path d="M294.883 656.311C284.527 624.485 288.041 589.947 304.589 561.209C305.223 560.235 305.995 559.212 307.091 557.773L307.197 557.634C308.245 556.258 309.623 554.45 310.874 552.485L310.904 552.437L310.934 552.389C320.821 536.524 337.954 526.272 357.88 526.272C375.196 526.272 390.777 534.472 400.902 547.129L401.074 546.996C401.895 548.087 402.522 548.888 403.04 549.548C403.911 550.659 404.47 551.372 405.113 552.402L405.279 552.667L405.458 552.924C406.3 554.127 407.336 555.474 408.142 556.522C408.425 556.889 408.679 557.22 408.887 557.494C409.881 558.809 410.488 559.7 410.885 560.428L410.958 560.562L411.035 560.694C427.737 589.544 431.512 624.458 421.165 656.005L421.16 656.021L421.155 656.036C417.179 668.27 414.994 680.948 414.994 693.744C414.994 760.846 469.415 815.267 536.516 815.267C603.618 815.267 658.039 760.846 658.039 693.744C658.039 636.226 617.257 586.145 560.923 574.692L560.871 574.842C528.217 567.87 500.203 547.709 483.663 518.889L483.652 518.869L483.64 518.85C466.972 490.058 463.42 455.149 473.789 423.538L473.861 423.318L473.925 423.095C474.34 421.642 474.632 420.181 474.822 419.226L474.85 419.086C475.079 417.944 475.197 417.389 475.318 416.964L475.373 416.772L475.422 416.578C475.556 416.041 475.761 415.299 476.002 414.427C476.669 412.014 477.613 408.602 478.1 405.754C479.341 399.199 479.96 392.635 479.96 385.799C479.96 318.697 425.539 264.276 358.438 264.276C291.336 264.276 236.915 318.697 236.915 385.799C236.915 392.407 237.543 398.954 238.766 405.702C239.25 408.559 240.202 412 240.873 414.427C241.114 415.3 241.32 416.042 241.454 416.578L241.502 416.772L241.557 416.964C241.678 417.388 241.796 417.943 242.025 419.085L242.053 419.226C242.243 420.18 242.535 421.642 242.95 423.095L243.01 423.304L243.077 423.512C253.461 455.421 249.894 490.029 232.996 518.782C216.008 547.686 187.92 568.152 155.084 574.977C98.7667 586.442 58 636.516 58 694.023C58 761.125 112.421 815.546 179.523 815.546C246.625 815.546 301.045 761.125 301.045 694.023C301.045 681.226 298.86 668.549 294.884 656.315L294.883 656.311Z" fill="black" stroke="white" stroke-width="24"/>
<path d="M924.884 574.694L917.529 573.199C887.778 565.025 862.456 545.706 847.066 518.891C830.367 489.794 826.821 455.135 837.201 423.235L837.202 423.231C841.179 410.997 843.364 398.32 843.364 385.522C843.364 318.421 788.943 264 721.841 264C654.739 264 600.319 318.421 600.319 385.522C600.319 443.029 641.083 493.101 697.398 504.568C730.029 511.407 758.339 531.636 775.284 560.712C791.979 589.558 795.735 624.432 785.154 655.925L785.135 655.981L785.116 656.038C781.14 668.272 778.955 680.949 778.955 693.747C778.955 760.848 833.376 815.269 900.477 815.269C967.579 815.269 1022 760.848 1022 693.747C1022 636.228 981.218 586.147 924.884 574.694Z" fill="black" stroke="white" stroke-width="24"/>
</svg>
